HIERARCHY
ROOT Hips
{
	OFFSET -0.001795 -0.223333 0.028219
	CHANNELS 6 Xposition Yposition Zposition Zrotation Yrotation Xrotation 
	JOINT LeftUpLeg
	{
		OFFSET 0.069520 -0.091406 -0.006815
		CHANNELS 3 Zrotation Yrotation Xrotation
		JOINT LeftLeg
		{
			OFFSET 0.034277 -0.375199 -0.004496
			CHANNELS 3 Zrotation Yrotation Xrotation
			JOINT LeftFoot
			{
				OFFSET -0.013596 -0.397961 -0.043693
				CHANNELS 3 Zrotation Yrotation Xrotation
				JOINT LeftToe
				{
					OFFSET 0.026358 -0.055791 0.119288
					CHANNELS 3 Zrotation Yrotation Xrotation
					End Site
					{
						OFFSET 0.000000 0.000000 0.000000
					}
				}
			}
		}
	}
	JOINT RightUpLeg
	{
		OFFSET -0.067670 -0.090522 -0.004320
		CHANNELS 3 Zrotation Yrotation Xrotation
		JOINT RightLeg
		{
			OFFSET -0.038290 -0.382569 -0.008850
			CHANNELS 3 Zrotation Yrotation Xrotation
			JOINT RightFoot
			{
				OFFSET 0.015774 -0.398415 -0.042312
				CHANNELS 3 Zrotation Yrotation Xrotation
				JOINT RightToe
				{
					OFFSET -0.025372 -0.048144 0.123348
					CHANNELS 3 Zrotation Yrotation Xrotation
					End Site
					{
						OFFSET 0.000000 0.000000 0.000000
					}
				}
			}
		}
	}
	JOINT Spine
	{
		OFFSET -0.002533 0.108963 -0.026696
		CHANNELS 3 Zrotation Yrotation Xrotation
		JOINT Spine1
		{
			OFFSET 0.005487 0.135180 0.001092
			CHANNELS 3 Zrotation Yrotation Xrotation
			JOINT Spine2
			{
				OFFSET 0.001457 0.052922 0.025425
				CHANNELS 3 Zrotation Yrotation Xrotation
				JOINT Neck
				{
					OFFSET -0.002778 0.213870 -0.042857
					CHANNELS 3 Zrotation Yrotation Xrotation
					JOINT Head
					{
						OFFSET 0.005152 0.064970 0.051349
						CHANNELS 3 Zrotation Yrotation Xrotation
						End Site
						{
							OFFSET 0.000000 0.000000 0.000000
						}
					}
				}
				JOINT LeftShoulder
				{
					OFFSET 0.078845 0.121749 -0.034090
					CHANNELS 3 Zrotation Yrotation Xrotation
					JOINT LeftArm
					{
						OFFSET 0.090977 0.030469 -0.008868
						CHANNELS 3 Zrotation Yrotation Xrotation
						JOINT LeftForeArm
						{
							OFFSET 0.259612 -0.012772 -0.027456
							CHANNELS 3 Zrotation Yrotation Xrotation
							JOINT LeftHand
							{
								OFFSET 0.249234 0.008986 -0.001171
								CHANNELS 3 Zrotation Yrotation Xrotation
								End Site
								{
									OFFSET 0.000000 0.000000 0.000000
								}
							}
						}
					}
				}
				JOINT RightShoulder
				{
					OFFSET -0.081759 0.118833 -0.038615
					CHANNELS 3 Zrotation Yrotation Xrotation
					JOINT RightArm
					{
						OFFSET -0.096012 0.032551 -0.009143
						CHANNELS 3 Zrotation Yrotation Xrotation
						JOINT RightForeArm
						{
							OFFSET -0.253742 -0.013329 -0.021401
							CHANNELS 3 Zrotation Yrotation Xrotation
							JOINT RightHand
							{
								OFFSET -0.255298 0.007772 -0.005559
								CHANNELS 3 Zrotation Yrotation Xrotation
								End Site
								{
									OFFSET 0.000000 0.000000 0.000000
								}
							}
						}
					}
				}
			}
		}
	}
}
MOTION
Frames: 13
Frame Time: 0.050000
-0.176674 0.957717 0.006310 -14.310139 -12.897351 16.707157 7.119932 -0.128655 -19.036478 0.990699 -0.287735 7.958569 13.000266 22.970335 18.386645 0.000000 0.000000 0.000000 -9.737677 1.465336 -17.297069 5.139806 6.124792 75.522984 -4.152439 -15.244663 25.898524 0.000000 0.000000 0.000000 -4.598398 0.437735 -5.747729 5.197287 -2.124279 -2.696833 3.720130 -5.005122 -0.643327 6.848486 -4.954119 -1.454315 0.000000 0.000000 0.000000 -18.540912 12.659154 -6.197911 -43.582497 -3.456858 -3.869150 -2.845043 -58.310831 7.232613 0.000000 0.000000 0.000000 12.658469 -9.805795 -7.527437 51.010125 -10.933867 -9.140665 4.584065 24.855329 0.878336 0.000000 0.000000 0.000000 
-0.182571 0.958720 0.000316 -15.421270 -10.494868 16.940153 8.897652 0.068412 -19.432601 1.409413 -0.379370 7.217429 11.736966 21.527363 17.480021 0.000000 0.000000 0.000000 -8.919561 1.338734 -15.695142 -0.102666 9.024966 71.024786 -1.121608 -11.233950 26.516244 0.000000 0.000000 0.000000 -4.623888 0.405504 -5.142178 5.849193 -2.375286 -3.174039 2.435359 -5.744021 -1.132311 7.259318 -5.184503 -2.055324 0.000000 0.000000 0.000000 -16.988715 12.906694 -6.339128 -43.832261 -5.159040 -3.133051 -2.183769 -57.228380 6.536624 0.000000 0.000000 0.000000 13.171550 -10.347584 -7.872100 52.054399 -12.150826 -9.809178 4.006300 24.171298 0.767923 0.000000 0.000000 0.000000 
-0.186847 0.959484 -0.005379 -16.111025 -8.853048 17.318896 10.300939 0.203836 -19.593485 1.314948 -0.340244 5.762377 10.866023 20.494806 17.046902 0.000000 0.000000 0.000000 -8.172171 1.352888 -16.142404 -3.126157 10.896380 70.743286 0.868767 -9.176409 30.143364 0.000000 0.000000 0.000000 -4.475499 0.383638 -4.627241 5.760705 -2.280871 -4.218900 1.723526 -6.260588 -0.654675 8.340743 -5.795200 -3.966097 0.000000 0.000000 0.000000 -16.384263 11.991549 -5.832754 -43.927720 -6.285849 -2.750152 -1.701468 -54.026660 5.711581 0.000000 0.000000 0.000000 13.489461 -11.869289 -8.596877 52.934981 -11.967727 -9.993940 4.851621 22.633108 0.901505 0.000000 0.000000 0.000000 
-0.189247 0.961073 -0.009357 -16.550775 -6.608919 16.497289 10.486785 0.043107 -18.069608 2.721195 -0.475680 3.243489 9.554623 18.892724 16.681821 0.000000 0.000000 0.000000 -7.265594 1.347514 -16.694716 -2.673102 10.570499 76.333078 1.550017 -8.262965 31.528863 0.000000 0.000000 0.000000 -4.796078 0.343950 -3.114856 6.315520 -2.474994 -4.668813 1.199299 -7.472112 -1.535086 8.528569 -5.901640 -3.591933 0.000000 0.000000 0.000000 -15.400469 11.253617 -5.391266 -44.131497 -6.356263 -2.608922 0.004078 -50.171078 4.284576 0.000000 0.000000 0.000000 14.664616 -11.739964 -8.964589 53.299789 -12.007694 -9.928222 3.483138 21.371179 0.629858 0.000000 0.000000 0.000000 
-0.190718 0.963510 -0.011027 -17.334548 -5.250390 16.083248 10.939477 -0.017598 -16.831928 3.968104 -0.522303 1.171056 8.713320 17.840284 17.083183 0.000000 0.000000 0.000000 -6.724737 1.356817 -17.021573 -1.658895 9.639851 81.082107 2.289490 -7.441151 32.954620 0.000000 0.000000 0.000000 -5.104095 0.342236 -2.676777 7.195782 -2.717029 -5.985809 1.025869 -8.187003 -0.446657 9.496493 -6.505799 -4.786355 0.000000 0.000000 0.000000 -15.745919 10.366924 -4.921532 -44.058075 -6.567781 -2.665531 0.199777 -47.515339 3.879367 0.000000 0.000000 0.000000 14.090420 -12.248053 -8.963626 53.888828 -11.623691 -10.056752 3.313339 19.800566 0.586006 0.000000 0.000000 0.000000 
-0.191958 0.965408 -0.011215 -17.541579 -4.646538 15.920396 11.413415 0.017811 -16.860871 3.810257 -0.505206 1.234212 8.312407 17.332079 17.429213 0.000000 0.000000 0.000000 -6.629217 1.475593 -19.189122 0.366363 8.141041 87.795523 3.902565 -6.577324 38.244473 0.000000 0.000000 0.000000 -4.756258 0.336209 -4.362675 6.063803 -2.522834 -2.709722 2.219670 -10.549167 -2.665858 7.925020 -5.450012 -3.248685 0.000000 0.000000 0.000000 -14.135696 11.379738 -5.048386 -45.786802 -5.924735 -2.695784 -0.954181 -46.325522 4.624696 0.000000 0.000000 0.000000 12.267797 -11.540620 -8.236624 54.396051 -12.036971 -10.477114 4.665608 20.184819 0.674585 0.000000 0.000000 0.000000 
-0.193354 0.965618 -0.011150 -17.686317 -4.519641 15.384350 11.984982 0.067587 -16.298340 3.240593 -0.437422 1.259830 8.235541 17.245026 17.248569 0.000000 0.000000 0.000000 -5.904240 1.594161 -20.133294 2.565495 6.259477 95.110900 6.197223 -3.530219 37.601873 0.000000 0.000000 0.000000 -5.113617 0.333098 -3.896964 7.444830 -3.012768 -3.817778 0.684318 -10.081269 -1.423188 8.484809 -5.797826 -4.610726 0.000000 0.000000 0.000000 -13.902581 10.615705 -4.756793 -44.321412 -5.692735 -2.812359 -0.994083 -45.368621 4.319063 0.000000 0.000000 0.000000 12.962943 -11.776289 -8.493859 55.250661 -11.090593 -10.258771 2.682662 19.132887 0.406244 0.000000 0.000000 0.000000 
-0.194526 0.963128 -0.010868 -17.151663 -3.984032 14.755716 12.258325 0.048246 -15.542608 1.904515 -0.249295 0.751241 8.003683 16.979830 16.159655 0.000000 0.000000 0.000000 -5.677866 1.699625 -21.787626 4.252032 3.738770 99.704102 9.977630 0.189935 40.072717 0.000000 0.000000 0.000000 -5.998730 0.344250 -3.866282 7.257167 -2.973138 -3.405352 1.409416 -10.637190 -2.630706 8.221007 -5.741244 -2.381241 0.000000 0.000000 0.000000 -13.904479 9.911131 -4.366110 -44.179897 -4.767043 -3.066006 -2.442588 -45.068602 4.864962 0.000000 0.000000 0.000000 12.760967 -10.714819 -8.013446 56.025595 -11.011068 -10.317500 1.242953 18.918705 0.161528 0.000000 0.000000 0.000000 
-0.195142 0.961430 -0.010844 -16.308028 -3.064970 13.883800 11.915664 -0.029157 -15.771145 1.027162 -0.197411 2.129237 7.517778 16.375640 15.122410 0.000000 0.000000 0.000000 -6.351553 1.617107 -22.855941 5.618127 0.693431 102.429577 11.998942 1.518529 42.663306 0.000000 0.000000 0.000000 -6.521551 0.335454 -3.449314 6.743931 -2.777225 -3.296837 1.076112 -10.724020 -2.924266 8.493717 -6.070939 -0.781943 0.000000 0.000000 0.000000 -13.168778 9.475489 -4.191010 -43.887979 -4.017913 -3.235709 -4.115997 -46.589696 5.685016 0.000000 0.000000 0.000000 13.750489 -10.523805 -8.231545 55.811691 -11.041779 -10.122455 1.099881 19.055944 0.160442 0.000000 0.000000 0.000000 
-0.194726 0.959369 -0.010595 -16.028018 -3.912560 13.252278 11.888041 0.058508 -16.787601 0.228610 -0.188492 5.555739 8.055903 17.087971 14.424971 0.000000 0.000000 0.000000 -6.649675 1.692267 -24.195882 7.570582 -1.732067 103.963580 11.855894 1.231202 43.155929 0.000000 0.000000 0.000000 -6.539074 0.328037 -3.493676 6.026694 -2.485624 -3.248536 0.859710 -9.373947 -2.441381 8.853523 -6.428437 -0.499470 0.000000 0.000000 0.000000 -12.326484 9.588580 -4.318837 -43.476114 -2.831599 -3.578442 -6.752051 -47.852935 6.905055 0.000000 0.000000 0.000000 14.878251 -10.496462 -8.501555 55.286174 -10.043757 -9.405759 1.001147 19.397380 0.191447 0.000000 0.000000 0.000000 
-0.193647 0.958491 -0.010590 -15.542887 -4.182355 13.090658 11.452055 0.037200 -17.450163 -0.148332 -0.157815 7.043436 8.194542 17.277489 14.303308 0.000000 0.000000 0.000000 -6.373097 1.735044 -24.084410 8.753900 -3.301899 102.752726 12.452316 1.772311 43.497249 0.000000 0.000000 0.000000 -5.871061 0.309152 -3.640784 4.997023 -2.075000 -2.906016 1.285693 -8.222731 -2.410688 9.058836 -6.564141 -0.923488 0.000000 0.000000 0.000000 -12.861126 9.255622 -4.297547 -42.843450 -1.711439 -3.935934 -8.298601 -48.864143 7.615708 0.000000 0.000000 0.000000 14.754334 -10.292081 -8.229043 54.596053 -9.322604 -8.874869 2.089531 20.719917 0.413107 0.000000 0.000000 0.000000 
-0.192784 0.958434 -0.010933 -15.471621 -4.271088 13.019351 11.218375 0.019067 -17.774765 0.002265 -0.198847 7.722884 8.234977 17.335453 14.357918 0.000000 0.000000 0.000000 -5.891002 1.840091 -24.516857 11.212323 -6.875741 101.297789 11.496277 0.414794 44.302473 0.000000 0.000000 0.000000 -5.408052 0.298305 -3.767014 4.882052 -2.059983 -2.373079 0.986440 -6.901151 -2.409110 9.178412 -6.619944 -1.489808 0.000000 0.000000 0.000000 -12.396398 9.203753 -4.400921 -43.655920 -0.020280 -4.510743 -9.869277 -50.092016 8.346308 0.000000 0.000000 0.000000 15.561676 -9.833458 -8.084550 53.859805 -8.606578 -8.276900 2.255279 22.176127 0.532029 0.000000 0.000000 0.000000 
-0.192649 0.958222 -0.011549 -15.184193 -5.327534 13.122880 11.034755 0.050472 -17.639386 -0.425338 -0.107035 7.671813 8.750891 17.992117 14.701586 0.000000 0.000000 0.000000 -5.146895 1.983434 -24.194429 13.694756 -9.161098 99.020817 9.521828 -1.465079 43.672711 0.000000 0.000000 0.000000 -5.280891 0.305823 -4.271226 4.496606 -1.928661 -1.752118 1.290870 -5.608799 -2.720295 8.989123 -6.520164 -1.162573 0.000000 0.000000 0.000000 -12.497190 9.779705 -4.777155 -43.222111 1.782006 -5.026851 -9.733806 -51.077083 8.348691 0.000000 0.000000 0.000000 16.072854 -9.024978 -7.777985 53.513004 -8.047866 -7.848327 1.857203 23.589218 0.507436 0.000000 0.000000 0.000000 
